<svg width="32" height="32" viewBox="0 0 32 32" fill="none" xmlns="http://www.w3.org/2000/svg">
<path d="M24.1334 5.34668H5.33341C4.96522 5.34668 4.66675 5.64516 4.66675 6.01335V18.0933C4.66675 18.4615 4.96522 18.76 5.33341 18.76H24.1334C24.5016 18.76 24.8001 18.4615 24.8001 18.0933V6.01335C24.8001 5.64516 24.5016 5.34668 24.1334 5.34668Z" fill="url(#paint0_linear_14119_134020)"/>
<path d="M23.3066 6.46655H6.15995C5.95377 6.46655 5.78662 6.6337 5.78662 6.83989V17.2799C5.78662 17.4861 5.95377 17.6532 6.15995 17.6532H23.3066C23.5128 17.6532 23.68 17.4861 23.68 17.2799V6.83989C23.68 6.6337 23.5128 6.46655 23.3066 6.46655Z" fill="white"/>
<path d="M18.7733 22.8267C16.7733 22.52 16.6933 21.08 16.7067 18.8267H12.7067C12.7067 21.1467 12.6267 22.5867 10.64 22.8267C10.37 22.8674 10.1231 23.002 9.94259 23.2069C9.76211 23.4118 9.65968 23.6737 9.65332 23.9467H19.7067C19.7002 23.6821 19.6045 23.4274 19.435 23.2241C19.2656 23.0208 19.0324 22.8807 18.7733 22.8267Z" fill="url(#paint1_linear_14119_134020)"/>
<path d="M26.8932 11.5468H17.7199C17.5679 10.7985 17.1433 10.1335 16.5287 9.68054C15.914 9.22762 15.153 9.01914 14.3934 9.09555C13.6337 9.17195 12.9295 9.52779 12.4173 10.094C11.9052 10.6603 11.6216 11.3966 11.6216 12.1601C11.6216 12.9236 11.9052 13.6599 12.4173 14.2261C12.9295 14.7924 13.6337 15.1482 14.3934 15.2246C15.153 15.301 15.914 15.0925 16.5287 14.6396C17.1433 14.1867 17.5679 13.5216 17.7199 12.7734H18.6666V25.5468C18.6666 25.6634 18.7129 25.7754 18.7954 25.8579C18.878 25.9404 18.9899 25.9868 19.1066 25.9868H26.8799C26.9966 25.9868 27.1085 25.9404 27.191 25.8579C27.2735 25.7754 27.3199 25.6634 27.3199 25.5468V11.9868C27.3199 11.8723 27.2754 11.7624 27.1958 11.6802C27.1161 11.5981 27.0076 11.5502 26.8932 11.5468Z" fill="#32BEDD"/>
<path d="M26.3601 12.76H19.6534C19.565 12.76 19.4934 12.8316 19.4934 12.92V24.2C19.4934 24.2884 19.565 24.36 19.6534 24.36H26.3601C26.4484 24.36 26.5201 24.2884 26.5201 24.2V12.92C26.5201 12.8316 26.4484 12.76 26.3601 12.76Z" fill="white"/>
<path opacity="0.9" d="M14.7333 14.1599C15.8084 14.1599 16.68 13.2884 16.68 12.2133C16.68 11.1382 15.8084 10.2666 14.7333 10.2666C13.6582 10.2666 12.7866 11.1382 12.7866 12.2133C12.7866 13.2884 13.6582 14.1599 14.7333 14.1599Z" fill="url(#paint2_linear_14119_134020)"/>
<path d="M23.8401 18.0934L22.3467 16.6C22.3348 16.5892 22.3199 16.5823 22.3039 16.5801C22.288 16.5779 22.2717 16.5806 22.2573 16.5878C22.2429 16.595 22.231 16.6064 22.2232 16.6205C22.2153 16.6345 22.2119 16.6506 22.2134 16.6667V17.5734C22.2134 17.5946 22.205 17.6149 22.19 17.6299C22.175 17.6449 22.1546 17.6534 22.1334 17.6534H18.6667V18.76H22.1334C22.1546 18.76 22.175 18.7685 22.19 18.7835C22.205 18.7985 22.2134 18.8188 22.2134 18.84V19.76C22.2207 19.771 22.2306 19.78 22.2423 19.7863C22.2539 19.7925 22.2669 19.7958 22.2801 19.7958C22.2933 19.7958 22.3063 19.7925 22.3179 19.7863C22.3295 19.78 22.3395 19.771 22.3467 19.76L23.8401 18.3334C23.8571 18.3183 23.8707 18.2999 23.8801 18.2792C23.8894 18.2585 23.8943 18.2361 23.8943 18.2134C23.8943 18.1907 23.8894 18.1682 23.8801 18.1475C23.8707 18.1268 23.8571 18.1084 23.8401 18.0934Z" fill="#0078D4"/>
<defs>
<linearGradient id="paint0_linear_14119_134020" x1="14.7334" y1="18.76" x2="14.7334" y2="5.34668" gradientUnits="userSpaceOnUse">
<stop stop-color="#0078D4"/>
<stop offset="0.82" stop-color="#5EA0EF"/>
</linearGradient>
<linearGradient id="paint1_linear_14119_134020" x1="14.7333" y1="23.9467" x2="14.7333" y2="18.76" gradientUnits="userSpaceOnUse">
<stop stop-color="#1490DF"/>
<stop offset="0.98" stop-color="#1F56A3"/>
</linearGradient>
<linearGradient id="paint2_linear_14119_134020" x1="14.7333" y1="14.1599" x2="14.7333" y2="10.2533" gradientUnits="userSpaceOnUse">
<stop stop-color="#D2EBFF"/>
<stop offset="1" stop-color="#F0FFFD"/>
</linearGradient>
</defs>
</svg>
